<?xml version="1.0" encoding="UTF-8"?>
<svg width="140px" height="39px" viewBox="0 0 140 39" version="1.1" xmlns="http://www.w3.org/2000/svg" xmlns:xlink="http://www.w3.org/1999/xlink">
    <!-- Generator: Sketch 39.1 (31720) - http://www.bohemiancoding.com/sketch -->
    <title>logo-make-dark</title>
    <desc>Created with Sketch.</desc>
    <defs></defs>
    <g id="master" stroke="none" stroke-width="1" fill="none" fill-rule="evenodd">
        <g id="make-handbook-apps_brandind_code" transform="translate(-36.000000, -3504.000000)">
            <g id="logo-make-dark" transform="translate(36.000000, 3504.000000)">
                <g id="icon-make">
                    <g id="Fill-1-+-Fill-1-Copy-+-Fill-3">
                        <path d="M11.5178437,0.446771324 C11.0905644,0.200026335 10.3988765,0.20890478 9.97149068,0.46746397 L0.772695364,6.03253603 C0.345947498,6.29070925 0,6.90331948 0,7.39354265 L0,18.6064574 C0,19.0999473 0.345309512,19.7089048 0.772695364,19.967464 L9.97149068,25.532536 C10.3982385,25.7907093 11.0933929,25.7983403 11.5178437,25.5532287 L21.2263423,19.9467713 C21.6536217,19.7000263 22,19.0966805 22,18.6064574 L22,7.39354265 C22,6.90005267 21.6507932,6.29834026 21.2263423,6.05322868 L11.5178437,0.446771324 Z" id="Fill-3" fill="#EC81B0"></path>
                        <path d="M0.773498639,6.95706738 C0.346307137,6.70463604 0,6.90331948 0,7.39354265 L0,18.6064574 C0,19.0999473 0.341270328,19.7016597 0.773498639,19.9570674 L10.2265014,25.5429326 C10.6536929,25.795364 11,25.5966805 11,25.1064574 L11,13.8935426 C11,13.4000527 10.6587297,12.7983403 10.2265014,12.5429326 L0.773498639,6.95706738 Z" id="Fill-1" fill="#BA006C"></path>
                        <path d="M11.7734986,6.95706738 C11.3463071,6.70463604 11,6.90331948 11,7.39354265 L11,18.6064574 C11,19.0999473 11.3412703,19.7016597 11.7734986,19.9570674 L21.2265014,25.5429326 C21.6536929,25.795364 22,25.5966805 22,25.1064574 L22,13.8935426 C22,13.4000527 21.6587297,12.7983403 21.2265014,12.5429326 L11.7734986,6.95706738 Z" id="Fill-1-Copy" fill="#E75299" transform="translate(16.500000, 16.250000) scale(-1, 1) translate(-16.500000, -16.250000) "></path>
                    </g>
                    <g id="Fill-1-+-Fill-1-Copy-+-Fill-3-Copy-Copy" transform="translate(22.000000, 0.000000)">
                        <path d="M11.2904416,0.446771324 C10.8538927,0.200026335 10.1506462,0.216266632 9.72790993,0.477960519 L0.77209007,6.02203948 C0.345676499,6.28600979 0,6.90331948 0,7.39354265 L0,18.6064574 C0,19.0999473 0.34935379,19.7162666 0.77209007,19.9779605 L9.72790993,25.5220395 C10.1543235,25.7860098 10.8567826,25.7983403 11.2904416,25.5532287 L21.2095584,19.9467713 C21.6461073,19.7000263 22,19.0966805 22,18.6064574 L22,7.39354265 C22,6.90005267 21.6432174,6.29834026 21.2095584,6.05322868 L11.2904416,0.446771324 Z" id="Fill-3" fill="#5EC5F1"></path>
                        <path d="M0.773498639,6.95706738 C0.346307137,6.70463604 0,6.90331948 0,7.39354265 L0,18.6064574 C0,19.0999473 0.341270328,19.7016597 0.773498639,19.9570674 L10.2265014,25.5429326 C10.6536929,25.795364 11,25.5966805 11,25.1064574 L11,13.8935426 C11,13.4000527 10.6587297,12.7983403 10.2265014,12.5429326 L0.773498639,6.95706738 Z" id="Fill-1" fill="#0086BF"></path>
                        <path d="M11.7734986,6.95706738 C11.3463071,6.70463604 11,6.90331948 11,7.39354265 L11,18.6064574 C11,19.0999473 11.3412703,19.7016597 11.7734986,19.9570674 L21.2265014,25.5429326 C21.6536929,25.795364 22,25.5966805 22,25.1064574 L22,13.8935426 C22,13.4000527 21.6587297,12.7983403 21.2265014,12.5429326 L11.7734986,6.95706738 Z" id="Fill-1-Copy" fill="#00A5EA" transform="translate(16.500000, 16.250000) scale(-1, 1) translate(-16.500000, -16.250000) "></path>
                    </g>
                    <g id="Fill-1-+-Fill-1-Copy-+-Fill-3-Copy" transform="translate(11.000000, 6.500000)">
                        <path d="M11.7734986,0.457067378 C11.3463071,0.204636035 10.6587297,0.201659739 10.2265014,0.457067378 L0.773498639,6.04293262 C0.346307137,6.29536396 0,6.90331948 0,7.39354265 L0,18.6064574 C0,19.0999473 0.341270328,19.7016597 0.773498639,19.9570674 L10.2265014,25.5429326 C10.6536929,25.795364 11.3412703,25.7983403 11.7734986,25.5429326 L21.2265014,19.9570674 C21.6536929,19.704636 22,19.0966805 22,18.6064574 L22,7.39354265 C22,6.90005267 21.6587297,6.29834026 21.2265014,6.04293262 L11.7734986,0.457067378 Z" id="Fill-3" fill="#FCC900"></path>
                        <path d="M0.773498639,6.95706738 C0.346307137,6.70463604 0,6.90331948 0,7.39354265 L0,18.6064574 C0,19.0999473 0.341270328,19.7016597 0.773498639,19.9570674 L10.2265014,25.5429326 C10.6536929,25.795364 11,25.5966805 11,25.1064574 L11,13.8935426 C11,13.4000527 10.6587297,12.7983403 10.2265014,12.5429326 L0.773498639,6.95706738 Z" id="Fill-1" fill="#F08D00"></path>
                        <path d="M11.7734986,6.95706738 C11.3463071,6.70463604 11,6.90331948 11,7.39354265 L11,18.6064574 C11,19.0999473 11.3412703,19.7016597 11.7734986,19.9570674 L21.2265014,25.5429326 C21.6536929,25.795364 22,25.5966805 22,25.1064574 L22,13.8935426 C22,13.4000527 21.6587297,12.7983403 21.2265014,12.5429326 L11.7734986,6.95706738 Z" id="Fill-1-Copy" fill="#F4A200" transform="translate(16.500000, 16.250000) scale(-1, 1) translate(-16.500000, -16.250000) "></path>
                    </g>
                    <g id="Fill-1-+-Fill-1-Copy-+-Fill-3-Copy-Copy-Copy" transform="translate(22.000000, 13.000000)">
                        <path d="M11.5178437,0.446771324 C11.0905644,0.200026335 10.3988765,0.20890478 9.97149068,0.46746397 L0.772695364,6.03253603 C0.345947498,6.29070925 0,6.90331948 0,7.39354265 L0,18.6064574 C0,19.0999473 0.345309512,19.7089048 0.772695364,19.967464 L9.97149068,25.532536 C10.3982385,25.7907093 11.0933929,25.7983403 11.5178437,25.5532287 L21.2263423,19.9467713 C21.6536217,19.7000263 22,19.0966805 22,18.6064574 L22,7.39354265 C22,6.90005267 21.6507932,6.29834026 21.2263423,6.05322868 L11.5178437,0.446771324 Z" id="Fill-3" fill="#7DB613"></path>
                        <path d="M0.773498639,6.95706738 C0.346307137,6.70463604 0,6.90331948 0,7.39354265 L0,18.6064574 C0,19.0999473 0.341270328,19.7016597 0.773498639,19.9570674 L10.2265014,25.5429326 C10.6536929,25.795364 11,25.5966805 11,25.1064574 L11,13.8935426 C11,13.4000527 10.6587297,12.7983403 10.2265014,12.5429326 L0.773498639,6.95706738 Z" id="Fill-1" fill="#007C2B"></path>
                        <path d="M11.7734986,6.95706738 C11.3463071,6.70463604 11,6.90331948 11,7.39354265 L11,18.6064574 C11,19.0999473 11.3412703,19.7016597 11.7734986,19.9570674 L21.2265014,25.5429326 C21.6536929,25.795364 22,25.5966805 22,25.1064574 L22,13.8935426 C22,13.4000527 21.6587297,12.7983403 21.2265014,12.5429326 L11.7734986,6.95706738 Z" id="Fill-1-Copy" fill="#009736" transform="translate(16.500000, 16.250000) scale(-1, 1) translate(-16.500000, -16.250000) "></path>
                    </g>
                    <g id="Fill-1-+-Fill-1-Copy-+-Fill-3-Copy-Copy-Copy-Copy" transform="translate(0.000000, 13.000000)">
                        <path d="M11.5178437,0.446771324 C11.0905644,0.200026335 10.3988765,0.20890478 9.97149068,0.46746397 L0.772695364,6.03253603 C0.345947498,6.29070925 0,6.90331948 0,7.39354265 L0,18.6064574 C0,19.0999473 0.345309512,19.7089048 0.772695364,19.967464 L9.97149068,25.532536 C10.3982385,25.7907093 11.0933929,25.7983403 11.5178437,25.5532287 L21.2263423,19.9467713 C21.6536217,19.7000263 22,19.0966805 22,18.6064574 L22,7.39354265 C22,6.90005267 21.6507932,6.29834026 21.2263423,6.05322868 L11.5178437,0.446771324 Z" id="Fill-3" fill="#ED7900"></path>
                        <path d="M0.773498639,6.95706738 C0.346307137,6.70463604 0,6.90331948 0,7.39354265 L0,18.6064574 C0,19.0999473 0.341270328,19.7016597 0.773498639,19.9570674 L10.2265014,25.5429326 C10.6536929,25.795364 11,25.5966805 11,25.1064574 L11,13.8935426 C11,13.4000527 10.6587297,12.7983403 10.2265014,12.5429326 L0.773498639,6.95706738 Z" id="Fill-1" fill="#BB0006"></path>
                        <path d="M11.7734986,7.4453477 C11.3463071,7.19938896 11,7.39297795 11,7.8906954 L11,18.7759713 C11,19.2678888 11.3412703,19.8631556 11.7734986,20.1120144 L21.2265014,25.5546523 C21.6536929,25.800611 22,25.607022 22,25.1093046 L22,14.2240287 C22,13.7321112 21.6587297,13.1368444 21.2265014,12.8879856 L11.7734986,7.4453477 Z" id="Fill-1-Copy" fill="#E94F00" transform="translate(16.500000, 16.500000) scale(-1, 1) translate(-16.500000, -16.500000) "></path>
                    </g>
                </g>
                <path d="M60.0023618,31.5900709 C59.9646175,32.427841 60.3798043,32.8848066 61.2101778,32.8848066 L62.455738,32.8848066 C63.210623,32.8848066 63.6258098,32.4659215 63.7012983,31.6662318 L64.9091143,15.9390007 C65.0600913,14.3015408 64.9846028,11.9024717 64.9846028,11.9024717 L65.0600913,11.9024717 C65.0600913,11.9024717 65.9282091,14.4919432 66.4943728,15.9390007 L71.4011254,27.0584958 C71.6653351,27.7439441 72.1182661,28.0485878 72.8354069,28.0485878 L74.0809671,28.0485878 C74.7981079,28.0485878 75.2510389,27.7439441 75.5152486,27.0584958 L80.4220012,15.9390007 C81.0259092,14.4538627 81.8562827,11.9786326 81.8562827,11.9786326 L81.9317712,11.9786326 C81.9317712,11.9786326 81.8562827,14.3015408 82.0072597,15.9390007 L83.2150757,31.6662318 C83.2905642,32.4659215 83.705751,32.8848066 84.4983802,32.8848066 L85.7061962,32.8848066 C86.5365697,32.8848066 86.9517565,32.427841 86.9140122,31.5900709 L84.9513112,7.18049434 C84.8758227,6.41888509 84.4228917,6 83.6680067,6 L81.9695155,6 C81.2523747,6 80.7994437,6.3046437 80.5729782,6.99009203 L74.7981079,20.5467367 C74.1941999,22.0318748 73.5148034,24.1643807 73.5148034,24.1643807 L73.4393149,24.1643807 C73.4393149,24.1643807 72.7221741,22.0318748 72.1182661,20.5467367 L66.3433958,6.99009203 C66.1169303,6.3046437 65.6639993,6 64.9468585,6 L63.2483673,6 C62.4934823,6 62.0405513,6.41888509 61.9650628,7.18049434 L60.0023618,31.5900709 L60.0023618,31.5900709 Z M88.4753661,27.6297028 C88.4753661,31.2473467 91.5326503,33.3417722 94.8918886,33.3417722 C99.3457102,33.3417722 101.11969,29.3052431 101.11969,29.3052431 L101.195178,29.3052431 C101.195178,29.3052431 101.081946,29.7622087 101.081946,30.4857375 L101.081946,31.6281513 C101.081946,32.4659215 101.534877,32.8848066 102.327506,32.8848066 L103.271112,32.8848066 C104.063741,32.8848066 104.516672,32.4659215 104.516672,31.6281513 L104.516672,20.6990586 C104.516672,15.8247594 101.761342,13.159127 97.0055666,13.159127 C94.0992594,13.159127 91.9478371,14.149219 90.8155096,14.7965869 C90.1361131,15.1773915 90.0228803,15.7866789 90.4003228,16.5102077 L90.7022768,17.0433342 C91.1174636,17.7287825 91.6836274,17.8430239 92.4007681,17.5002997 C93.2688859,17.0052537 94.8164001,16.2817249 96.7036126,16.2817249 C99.0437562,16.2817249 100.85548,17.3479779 100.85548,20.5086563 L100.85548,21.0037023 L99.8741297,21.0037023 C95.9109834,21.0037023 88.4753661,21.6510701 88.4753661,27.6297028 L88.4753661,27.6297028 L88.4753661,27.6297028 Z M92.1743026,27.3250591 C92.1743026,23.6693346 97.2320322,23.4408519 99.9118739,23.4408519 L100.893224,23.4408519 L100.893224,24.2786221 C100.893224,27.1346567 98.9305234,30.4095765 95.7222621,30.4095765 C93.3821186,30.4095765 92.1743026,28.8482776 92.1743026,27.3250591 L92.1743026,27.3250591 L92.1743026,27.3250591 Z M107.098379,31.6281513 C107.098379,32.4659215 107.513566,32.8848066 108.343939,32.8848066 L109.514011,32.8848066 C110.30664,32.8848066 110.721827,32.4659215 110.721827,31.6281513 L110.721827,23.859737 L113.552646,23.859737 L118.761353,32.008956 C119.101051,32.6182434 119.553982,32.8848066 120.233378,32.8848066 L121.743148,32.8848066 C122.762243,32.8848066 123.101941,32.2374387 122.573522,31.3615881 L116.458953,22.1841966 L116.458953,22.1080357 L121.743148,15.139311 C122.347056,14.3015408 122.007358,13.6160925 120.988263,13.6160925 L119.591726,13.6160925 C118.91233,13.6160925 118.459399,13.8445753 118.1197,14.4157822 L113.477157,20.6609781 L110.721827,20.6609781 L110.721827,7.25665527 C110.721827,6.41888509 110.30664,6 109.514011,6 L108.343939,6 C107.513566,6 107.098379,6.41888509 107.098379,7.25665527 L107.098379,31.6281513 L107.098379,31.6281513 Z M121.952,23.2504496 C121.952,28.962519 126.066123,33.3417722 132.067459,33.3417722 C135.124743,33.3417722 137.389398,32.0851169 138.521726,31.2854272 C139.163378,30.9046225 139.276611,30.2572547 138.899168,29.6098868 L138.55947,29.0386799 C138.144283,28.3151511 137.578119,28.2389902 136.860979,28.6197948 C135.992861,29.2671627 134.369858,30.1430133 132.293924,30.1430133 C128.896942,30.1430133 125.915146,27.8201051 125.688681,23.6312542 L138.446237,23.6312542 C139.201122,23.6312542 139.729542,23.0219668 139.729542,22.3365185 C139.729542,16.9671732 136.78549,13.159127 131.501295,13.159127 C126.066123,13.159127 121.952,17.1194951 121.952,23.2504496 L121.952,23.2504496 L121.952,23.2504496 Z M125.839658,21.1941046 C126.368077,17.9572653 128.632732,16.0532421 131.425807,16.0532421 C133.954671,16.0532421 135.955117,17.8049434 136.068349,21.1941046 L125.839658,21.1941046 L125.839658,21.1941046 Z" id="title-make-dark" fill="#3B3A3B"></path>
            </g>
        </g>
    </g>
</svg>